<svg width="354" height="375" viewBox="0 0 354 375" fill="none" xmlns="http://www.w3.org/2000/svg">
<path d="M264 222H222L222 20C222 8.95431 230.954 0 242 0H244C255.046 0 264 8.95431 264 20V222Z" fill="black"/>
<path d="M354 244C354 255.046 345.046 264 334 264H132V222L334 222C345.046 222 354 230.954 354 242V244Z" fill="black"/>
<path d="M90 153H132V355C132 366.046 123.046 375 112 375H110C98.9543 375 90 366.046 90 355V153Z" fill="black"/>
<path d="M0 131C0 119.954 8.95431 111 20 111H222V153H20C8.95431 153 0 144.046 0 133V131Z" fill="black"/>
</svg>
