<svg width="354" height="354" viewBox="0 0 354 354" fill="none" xmlns="http://www.w3.org/2000/svg">
<path d="M264 222H222L222 20C222 8.95431 230.954 0 242 0H244C255.046 0 264 8.95431 264 20V222Z" fill="black"/>
<path d="M354 244C354 255.046 345.046 264 334 264H132V222L334 222C345.046 222 354 230.954 354 242V244Z" fill="black"/>
<path d="M90 132H132V334C132 345.046 123.046 354 112 354H110C98.9543 354 90 345.046 90 334V132Z" fill="black"/>
<path d="M0 110C0 98.9543 8.95431 90 20 90H222V132H20C8.95431 132 0 123.046 0 112V110Z" fill="black"/>
</svg>
